<svg height="512" viewBox="0 0 512 512" width="512" xmlns="http://www.w3.org/2000/svg"><g id="FilledOutline"><path d="m101.42 106.35c4.53 24.38 13.6 73.17 21.93 117.98 7.977 42.9 12.086 86.513 16.163 130.135h66.006c-12.942-46.065-26.267-92.058-34.979-138.915-8.33-44.8-17.4-93.58-21.93-117.97-1.84-9.86-2.93-15.73-2.93-15.73l-6.16-40.93-49.88 7.59 8.85 42.11s1.09 5.87 2.93 15.73z" fill="#e9ae48"/><path d="m148.61 97.58-47.19 8.77c-1.84-9.86-2.93-15.73-2.93-15.73l-8.85-42.11 49.88-7.59 6.16 40.93s1.09 5.87 2.93 15.73z" fill="#d7a148"/><path d="m161.408 78.921-133.708 24.863-11.7-62.922 133.708-24.862 73.712 2.568 5.85 31.461z" fill="#c9c9c8"/><path d="m343.462 378.18 17.328-131.57 4.18-31.74-47.41-7.48-5.8 31.47-25.675 139.32z" fill="#ce882a"/><path d="m322.234 229.086 8.22-52.059-13.309-18.3 16.22-102.727 63.217 9.982-16.22 102.727-18.3 13.309-8.622 54.605z" fill="#c9c9c8"/><path d="m364.97 214.87-4.18 31.74-49.03-7.75 5.8-31.47z" fill="#e9ae48"/><path d="m333.365 56 63.217 9.982-2.5 15.8a16 16 0 0 1 -18.3 13.309l-31.604-4.991a16 16 0 0 1 -13.309-18.3z" fill="#b2b1b4"/><path d="m394.803 312 45.67-292.125 63.232 9.886-44.36 283.748z" fill="#0093b9"/><path d="m277.242 432-4.712-184-.82-32h-48l-.82 32-4.719 184z" fill="#ce882a"/><path d="m263.705 232v-48l16-16v-104l-64 32v72l16 16v48z" fill="#c9c9c8"/><path d="m272.53 248h-49.64l.82-32h48z" fill="#e9ae48"/><path d="m215.705 96 64-32v40l-64 32z" fill="#b2b1b4"/><path d="m72.945 313.509-27.883-150.567 31.465-5.826 28.962 156.393z" fill="#f8bc1e"/><path d="m54.992 199.093h32v32h-32z" fill="#e9ae48" transform="matrix(.983 -.182 .182 .983 -37.979 16.523)"/><path d="m48.436 159.695h32v40h-32z" fill="#c9c9c8" transform="matrix(.983 -.182 .182 .983 -31.643 14.737)"/><path d="m472 312v152a24 24 0 0 1 -24 24h-384a24 24 0 0 1 -24-24v-152z" fill="#808080"/><g fill="#686869"><path d="m199.999 328h112v160h-112z"/><path d="m40 328h160v16h-160z"/><path d="m312 328h160v16h-160z"/></g><path d="m200 328h112v16h-112z" fill="#4e4e4f"/><path d="m24 296h464v32h-464z" fill="#eb5849"/><path d="m336 480h-184l-16-16 16-16h184z" fill="#c9c9c8"/><path d="m464 488h-80l-16-8h-16l-16 8h-24v-48h24l16 8h16l16-8h80a24 24 0 0 1 24 24 24 24 0 0 1 -24 24z" fill="#f7ce2c"/><path d="m504.941 21.856-63.232-9.885a8 8 0 0 0 -9.14 6.669l-42.111 269.36h-27.048l9.495-72.081a8 8 0 0 0 -6.684-8.947l3.226-20.434 15.62-11.359a8 8 0 0 0 3.2-5.222l16.216-102.728a8 8 0 0 0 -6.654-9.15l-63.217-9.979a8 8 0 0 0 -9.15 6.654l-16.219 102.725a8 8 0 0 0 1.432 5.954l11.36 15.62-3.227 20.432a8 8 0 0 0 -9.115 6.453l-15.123 82.062h-13.016l-1.854-72.2a8 8 0 0 0 -8-7.795v-20.692l13.657-13.656a8 8 0 0 0 2.348-5.657v-104a8 8 0 0 0 -11.578-7.155l-64 32a8 8 0 0 0 -4.422 7.155v72a8 8 0 0 0 2.343 5.657l13.657 13.656v20.687a8 8 0 0 0 -8 7.795l-1.849 72.205h-18.432c-7.533-28.511-12.969-52.129-17.019-73.908l-23.399-125.842 7.865-1.463a7.932 7.932 0 0 0 1.671-.505l67.858-28.893a8 8 0 0 0 4.732-8.824l-5.85-31.46a8 8 0 0 0 -7.586-6.532l-73.709-2.568a8.107 8.107 0 0 0 -1.741.13l-133.708 24.865a8 8 0 0 0 -6.4 9.328l11.7 62.922a7.993 7.993 0 0 0 9.328 6.4l62.921-11.7 23.4 125.842c3.478 18.708 6.439 38.67 9.22 62.209h-15.807l-21.593-116.61a24 24 0 0 0 -47.2 8.741l19.978 107.868h-36.085a8 8 0 0 0 -8 8v32a8 8 0 0 0 8 8h8v128a32.036 32.036 0 0 0 32 32h56v-16h-56a16.019 16.019 0 0 1 -16-16v-128h40v40a8 8 0 0 0 8 8h24v16h16v-16h24a8 8 0 0 0 8-8v-40h24v88h16v-88h96v80h16v-80h24v40a8 8 0 0 0 8 8h24v16h16v-16h24a8 8 0 0 0 8-8v-40h40v80h16v-80h8a8 8 0 0 0 8-8v-32a8 8 0 0 0 -8-8h-16.57l40.179-257a8 8 0 0 0 -6.668-9.144zm-148.918 199.704-2.09 15.868-32.818-5.182 2.9-15.74zm31.409-148.924-1.25 7.915a8.007 8.007 0 0 1 -9.148 6.641l-31.608-4.992a8 8 0 0 1 -6.655-9.148l1.248-7.9zm-50.509 99.686-11.36-15.62 9.682-61.317a23.988 23.988 0 0 0 7.686 2.621l31.608 4.994a24.109 24.109 0 0 0 3.757.3 23.762 23.762 0 0 0 4.359-.406l-9.679 61.3-15.62 11.36a8 8 0 0 0 -3.2 5.222l-3.743 23.706-15.8-2.5 3.742-23.706a8 8 0 0 0 -1.432-5.954zm-18.709 75.665 33.629 5.31-4.571 34.703h-36.432zm-54.306-23.987.41 16h-33.226l.41-16zm7.8-147.056v22.112l-48 24v-22.112zm-34.343 101.4-13.657-13.656v-23.744l48-24v47.743l-13.657 13.656a8 8 0 0 0 -2.346 5.657v24h-16v-24a8 8 0 0 0 -2.343-5.657zm-6.683 77.656h34.046l.82 32h-35.686zm-205.354-208.735 124.979-23.24 66.421 2.315 3.5 18.842-61.145 26.035-124.983 23.239zm105.886 175.6-23.4-125.842 31.46-5.849 23.4 125.843c3.927 21.12 9.125 43.894 16.208 70.982h-38.07c-2.886-24.714-5.961-45.575-9.598-65.133zm-50.9-1.364-15.733 2.914-2.913-15.733 15.732-2.912zm-23.2-50.273a8 8 0 0 1 14.458 3.076l2.914 15.733-15.733 2.913-2.913-15.733a7.947 7.947 0 0 1 1.276-5.988zm10.386 68.92 15.733-2.913 9.396 50.765h-16.272zm84.5 127.852h-16v-16h-16v16h-16v-32h48zm256 0h-16v-16h-16v16h-16v-32h48zm72-48h-448v-16h448zm-24.764-32h-48.584l3.419-21.865 15.807 2.471 2.472-15.806-15.808-2.472 3.707-23.711 15.808 2.471 2.472-15.809-15.808-2.471 3.707-23.711 15.807 2.471 2.472-15.808-15.807-2.474 3.707-23.712 15.808 2.472 2.472-15.809-15.808-2.471 3.707-23.711 15.807 2.471 2.472-15.808-15.808-2.472 3.707-23.711 15.808 2.472 2.471-15.807-15.808-2.472 3.707-23.711 47.423 7.414z"/><path d="m464 432h-80a7.994 7.994 0 0 0 -3.578.845l-14.311 7.155h-12.222l-14.311-7.155a7.994 7.994 0 0 0 -3.578-.845h-24a8 8 0 0 0 -8 8h-152a8 8 0 0 0 -5.657 2.343l-16 16a8 8 0 0 0 0 11.314l16 16a8 8 0 0 0 5.657 2.343h152a8 8 0 0 0 8 8h24a7.994 7.994 0 0 0 3.578-.845l14.311-7.155h12.222l14.311 7.155a7.994 7.994 0 0 0 3.578.845h80a32 32 0 0 0 0-64zm-308.686 40-8-8 8-8h148.686v16zm216.264.845a7.994 7.994 0 0 0 -3.578-.845h-16a7.994 7.994 0 0 0 -3.578.845l-14.311 7.155h-14.111v-32h14.111l14.311 7.155a7.994 7.994 0 0 0 3.578.845h16a7.994 7.994 0 0 0 3.578-.845l14.311-7.155h54.111v32h-54.111zm92.422 7.155h-8v-32h8a16 16 0 0 1 0 32z"/></g></svg>