<svg height="496pt" viewBox="0 0 496 496" width="496pt" xmlns="http://www.w3.org/2000/svg"><path d="m161.96875 177.167969-137.609375 83.542969c-15.023437 9.121093-24.359375 25.714843-24.359375 43.289062 0 13.230469 10.769531 24 24 24s24-10.769531 24-24v-3.28125l123.871094-68.574219zm0 0" fill="#f0bc5e"/><path d="m463 0c-6.046875 0-11.96875 1.65625-17.128906 4.800781l-122.023438 74.078125 9.054688 64.128906 146.082031-80.855468c10.503906-5.824219 17.015625-16.894532 17.015625-29.152344 0-18.191406-14.808594-33-33-33zm0 0" fill="#f0bc5e"/><path d="m384 352h-61.097656c64.21875-28.742188 109.097656-93.207031 109.097656-168 0-29.472656-7.144531-58.472656-20.585938-84.457031l-13.988281 7.746093c3.644531 7.101563 6.71875 14.480469 9.316407 22.015626l-15.628907 9.023437 8 13.855469 12.277344-7.085938c1.992187 8.328125 3.296875 16.824219 3.992187 25.40625l-79.382812 45.824219v-27.710937l50.496094-29.152344-8-13.855469-42.496094 24.535156v-120.089843l7.183594-4.152344c5.3125 3.683594 10.503906 7.5625 15.417968 11.875l14.375-8.730469c-34.113281-31.597656-78.402343-49.046875-124.976562-49.046875-101.457031 0-184 82.542969-184 184 0 16.535156 2.3125 32.832031 6.632812 48.617188l14.222657-8.640626c-2.121094-8.679687-3.503907-17.535156-4.230469-26.480468l79.375-45.824219v120.089844l-38.703125 22.34375c-6.519531-7.480469-12.464844-15.539063-17.632813-24.203125l-14.007812 7.753906c33.046875 55.757812 93.511719 90.34375 158.34375 90.34375 7.496094 0 14.871094-.503906 22.136719-1.375 3.175781.808594 6.4375 1.375 9.863281 1.375h104c13.230469 0 24 10.769531 24 24s-10.769531 24-24 24h-224c-22.054688 0-40 17.945312-40 40s17.945312 40 40 40h232v-16h-232c-13.230469 0-24-10.769531-24-24s10.769531-24 24-24h224c22.054688 0 40-17.945312 40-40s-17.945312-40-40-40zm31.320312-154.535156c-.695312 8.671875-2.074218 17.128906-4.03125 25.382812l-27.289062-15.75 24-13.859375zm-8.632812 41.207031c-2.648438 7.671875-5.800781 15.105469-9.488281 22.230469l-53.199219-30.71875 24-13.855469zm-70.6875 79.273437v-27.714843l27.214844 15.714843c-6.214844 5.878907-12.824219 11.34375-19.878906 16.230469zm0-46.191406v-27.714844l53.167969 30.695313c-4.382813 6.800781-9.246094 13.234375-14.535157 19.3125zm-16 63.804688c-7.71875 3.679687-15.695312 6.882812-24 9.371094v-321.792969c8.222656 2.464843 16.257812 5.496093 24 9.199219zm-239.320312-165.023438c.695312-8.671875 2.074218-17.128906 4.03125-25.382812l27.289062 15.75-24 13.859375zm8.632812-41.207031c2.648438-7.671875 5.800781-15.105469 9.488281-22.230469l53.199219 30.71875-24 13.855469zm70.6875-79.273437v27.714843l-27.214844-15.714843c6.214844-5.878907 12.824219-11.34375 19.878906-16.230469zm0 46.191406v27.714844l-53.167969-30.695313c4.382813-6.800781 9.246094-13.234375 14.535157-19.3125zm0 221.699218-7.273438 4.199219c-7.054687-4.863281-13.742187-10.257812-20.007812-16.160156l27.28125-15.753906zm56 30.925782v-292.871094h-16v288.847656c-8.238281-2.472656-16.265625-5.527344-24-9.214844v-303.191406c7.71875-3.679687 15.695312-6.882812 24-9.371094v16.929688h16v-20.855469c7.816406-1.511719 15.847656-2.351562 24-2.738281v287.59375h16v-287.640625c8.113281.382813 16.136719 1.257813 24 2.785156v329.710938c-2.945312.570312-5.953125.960937-8.953125 1.367187-8.808594-3.550781-15.046875-12.160156-15.046875-22.222656v-8h-16v8c0 9.03125 3.128906 17.289062 8.199219 23.992188-.070313 0-.136719.007812-.199219.007812-10.847656 0-21.550781-1.078125-32-3.128906zm0 0"/><path d="m408 480h16v16h-16zm0 0"/></svg>